<?xml version="1.0" encoding="UTF-8"?><svg id="Layer_2" xmlns="http://www.w3.org/2000/svg" viewBox="0 0 461 141"><defs><style>.cls-1{fill:#22b573;}</style></defs><g id="Layer_1-2"><g><path class="cls-1" d="M103.49,117.03c0-12.13-6.96-23.19-17.91-28.43-4.8-2.3-9.1-7.11-9.1-13.42v28.53c19.21,1.63,27.01,13.32,27.01,13.32Z"/><path class="cls-1" d="M103.49,27v-9H40.48v9c0,4.83,1.08,9.41,3.03,13.5h56.95c1.94-4.1,3.03-8.67,3.03-13.5Z"/><path class="cls-1" d="M117.54,18h-5.04v9c0,15.6-8.95,29.81-23.02,36.55-2.61,1.25-3.99,3.39-3.99,5.31v6.3c0,1.92,1.39,4.06,3.99,5.31,14.07,6.74,23.02,20.95,23.02,36.55v9h1.41c16.48-12.9,27.09-32.97,27.09-55.53,0-20.86-9.06-39.59-23.46-52.5Z"/><path class="cls-1" d="M40.48,117.03s7.8-11.69,27.01-13.32v-28.54c0,6.31-4.3,11.13-9.1,13.43-10.94,5.24-17.91,16.3-17.91,28.43Z"/><path class="cls-1" d="M42.11,135.03c8.69,3.83,18.29,5.97,28.39,5.97s19.7-2.14,28.39-5.97H42.11Z"/><path class="cls-1" d="M27.09,126.03h4.39v-9c0-15.6,8.95-29.81,23.02-36.55,2.61-1.25,3.99-3.39,3.99-5.31v-6.3c0-1.92-1.39-4.06-3.99-5.31-14.07-6.74-23.02-20.95-23.02-36.55v-9h-8.02C9.06,30.91,0,49.64,0,70.5c0,22.56,10.61,42.62,27.09,55.53Z"/><path class="cls-1" d="M104.96,9C94.77,3.28,83.02,0,70.5,0s-24.27,3.28-34.46,9H104.96Z"/></g><g><path class="cls-1" d="M177.51,109.29V53.29h-22.51v-14.79h61.82v14.79h-22.41v56.01h-16.89Z"/><path class="cls-1" d="M225.11,109.29V38.49h16.89V109.29h-16.89Z"/><path class="cls-1" d="M252.7,109.29l14.7-73.1h1.22l26.71,46.09,25.2-46.09h1.27l14.79,73.1h-16.06l-6.01-32.32-18.99,34.91h-1.12l-20.41-35.4-6.2,32.81h-15.09Z"/><path class="cls-1" d="M346.89,109.29V38.49h43.6v14.6h-27.2v12.79h23.29v14.5h-23.29v14.01h27.59v14.89h-43.99Z"/><path class="cls-1" d="M403.78,109.29V38.49h18.21c5.83,0,10.34,.38,13.55,1.15,3.21,.77,6.05,2.04,8.52,3.83,2.64,1.89,4.68,4.22,6.13,7.01,1.45,2.78,2.17,5.72,2.17,8.81,0,4.46-1.13,8.37-3.39,11.72-2.26,3.35-5.53,5.97-9.79,7.86l21.58,30.42h-19.29l-18.9-27.78h-2.39v27.78h-16.41Zm19.19-57.91h-2.78v19.63h3.56c4.26,0,7.52-.86,9.77-2.59,2.25-1.73,3.37-4.2,3.37-7.42,0-3.39-1.09-5.83-3.27-7.35-2.18-1.51-5.73-2.27-10.64-2.27Z"/></g><rect class="cls-1" x="71" y="135.05" width="390" height="5"/></g></svg>